<?xml version="1.0" encoding="UTF-8"?>
<svg id="_レイヤー_1" data-name="レイヤー_1" xmlns="http://www.w3.org/2000/svg" version="1.1" viewBox="0 0 18 18">
  <!-- Generator: Adobe Illustrator 29.8.5, SVG Export Plug-In . SVG Version: 2.1.1 Build 2)  -->
  <defs>
    <style>
      .st0 {
        fill: #0b0b0b;
      }
    </style>
  </defs>
  <polygon class="st0" points="4.7780029 10.7720053 2.2170354 10.7720053 2.2170354 2.216992 10.7723018 2.216992 10.7723018 4.7781278 12.2393372 4.7781278 12.2393372 .75 .75 .75 .75 12.2389973 4.7780029 12.2389973 4.7780029 10.7720053"/>
  <g>
    <rect class="st0" x="15.7829646" y="15.783008" width="1.4670354" height="1.466992"/>
    <path class="st0" d="M14.0719113,17.25h-1.7110533v-1.466992h1.7110533v1.466992ZM10.6498048,17.25h-1.7105652v-1.466992h1.7105652v1.466992Z"/>
    <rect class="st0" x="5.7611509" y="15.783008" width="1.4670354" height="1.466992"/>
    <path class="st0" d="M7.2281863,14.0720053h-1.4670354v-1.7110027h1.4670354v1.7110027ZM7.2281863,10.65h-1.4670354v-1.7105146h1.4670354v1.7105146Z"/>
    <rect class="st0" x="5.7611509" y="5.7610027" width="1.4670354" height="1.466992"/>
    <path class="st0" d="M14.0719113,7.2279947h-1.7105652v-1.466992h1.7105652v1.466992ZM10.6502928,7.2279947h-1.7110533v-1.466992h1.7110533v1.466992Z"/>
    <polygon class="st0" points="16.5164823 7.2279947 15.7829646 7.2279947 15.7829646 5.7610027 17.25 5.7610027 17.25 7.2279947 16.5164823 7.2279947"/>
    <path class="st0" d="M17.25,14.0715173h-1.4670354v-1.7105146h1.4670354v1.7105146ZM17.25,10.65h-1.4670354v-1.7110027h1.4670354v1.7110027Z"/>
  </g>
</svg>