<?xml version="1.0" encoding="UTF-8"?>
<svg id="_レイヤー_1" xmlns="http://www.w3.org/2000/svg" version="1.1" viewBox="0 0 100 64">
  <!-- Generator: Adobe Illustrator 29.8.5, SVG Export Plug-In . SVG Version: 2.1.1 Build 2)  -->
  <defs>
    <style>
      .st0 {
        fill: #cf5e35;
      }
    </style>
  </defs>
  <path class="st0" d="M7.5791016,36.1962891c-.4921875,0-.9887695-.0839844-1.4814453-.2509766-1.4448242-.4921875-2.5200195-1.4697266-3.1098633-2.8271484-.7954102-1.8310547-.6069336-4.2314453.53125-6.7583008,1.8051758-4.0058594,7.2319336-7.5639648,7.4624023-7.7133789l1.3154297-.8544922.605957,1.4467773c1.4287109,3.4106445,1.7661133,7.0219727.949707,10.1694336-.2832031,1.0922852-1.4189453,4.7695312-4.1342773,6.234375-.6831055.3681641-1.4057617.5537109-2.1391602.5537109ZM11.050293,21.8183594c-1.5947266,1.2172852-4.1474609,3.4077148-5.1425781,5.6176758-.831543,1.8452148-1.0151367,3.4926758-.5175781,4.6391602.2919922.6713867.8139648,1.1386719,1.5512695,1.3896484.5405273.1835938,1.027832.1445312,1.5332031-.1279297,1.1494141-.6196289,2.2915039-2.4628906,2.8427734-4.5864258.5517578-2.128418.453125-4.5415039-.2670898-6.9321289Z"/>
  <path class="st0" d="M6.2260742,59.2919922c-1.3530273,0-2.5283203-.4511719-3.4042969-1.3095703-1.2182617-1.1943359-1.8378906-3.1044922-1.8417969-5.6787109-.0043945-2.8271484,2.3100586-7.5488281,4.3891602-10.0185547l.9819336-1.1660156,1.5371094,1.7480469c1.8037109,2.0292969,3.6679688,4.1269531,4.1137695,7.3701172.3964844,2.8876953-.1894531,5.4160156-1.6489258,7.1220703-1.0410156,1.2167969-2.465332,1.9023438-4.0107422,1.9316406-.0385742.0009766-.0776367.0009766-.1162109.0009766ZM6.4570312,45.2021484c-1.5478516,2.3144531-2.8603516,5.4736328-2.8579102,7.0976562.0029297,1.8193359.3681641,3.1376953,1.0556641,3.8115234.3994141.390625.9443359.5908203,1.6381836.5605469.7983398-.0146484,1.5141602-.3662109,2.0703125-1.015625.9521484-1.1132812,1.3325195-2.9580078,1.0439453-5.0625-.3007812-2.1845703-1.5419922-3.7841797-2.9501953-5.3916016Z"/>
  <path class="st0" d="M91.5332031,36.1416016c-1.0556641,0-2.046875-.3105469-2.8964844-.9228516-1.859375-1.3388672-2.8574219-3.9848633-2.8105469-7.4501953.0585938-4.2954102.4853516-8.8422852.5039062-9.0336914l.2148438-2.2724609,1.8535156,1.3325195c.7490234.5385742,7.3554688,5.3686523,8.7167969,9.1069336.7558594,2.0727539.7373047,4.1298828-.0507812,5.7919922-.6923828,1.4604492-1.9082031,2.5288086-3.5166016,3.090332-.6845703.2392578-1.3623047.3574219-2.0146484.3574219ZM88.7451172,21.3652344c-.125,1.7226562-.2685547,4.1416016-.2998047,6.4389648-.0341797,2.5483398.5927734,4.4765625,1.7216797,5.2895508.6806641.4921875,1.5292969.5625,2.5175781.2177734.9316406-.3251953,1.6279297-.9267578,2.0126953-1.7402344.4863281-1.0239258.4707031-2.3637695-.0429688-3.7729492-.6904297-1.8945312-3.6757812-4.6230469-5.9091797-6.4331055Z"/>
  <path class="st0" d="M93.0488281,61.6630859c-.3876953,0-.7832031-.0400391-1.1816406-.1210938-1.2363281-.25-2.2392578-.9472656-2.9003906-2.0166016-1.7216797-2.7832031-.8271484-7.4873047-.1396484-10.0429688.7773438-2.8935547,1.5556641-5.9833984,1.5556641-5.9863281l.578125-2.2949219,1.6376953,1.7080078c.6503906.6787109,6.359375,6.7568359,6.4199219,11.0869141.0380859,2.7148438-.8925781,5.0615234-2.5537109,6.4394531-.9736328.8076172-2.1572266,1.2275391-3.4160156,1.2275391ZM92.3085938,46.5410156c-.2753906,1.0654297-.6132812,2.3623047-.9521484,3.6210938-.7470703,2.7802734-1.1816406,6.3369141-.1621094,7.9853516.2832031.4570312.6621094.7197266,1.1933594.828125.9267578.1884766,1.734375,0,2.4052734-.5566406,1.0322266-.8564453,1.6328125-2.4960938,1.6064453-4.3857422-.0292969-2.0810547-2.2871094-5.3007812-4.0908203-7.4921875Z"/>
  <path class="st0" d="M75.5644531,9.3779297c-6.4423828,0-12.8847656-1.5239258-18.9746094-4.5615234l1.1699219-2.34375c10.7236328,5.3496094,22.6083984,5.6972656,33.4677734.9814453l1.0429688,2.4023438c-5.4101562,2.3496094-11.0585938,3.5214844-16.7060547,3.5214844Z"/>
  <path class="st0" d="M24.9399414,9.3779297c-6.4418945,0-12.8842773-1.5239258-18.9736328-4.5615234l1.1689453-2.34375c10.7241211,5.3486328,22.6098633,5.6962891,33.4677734.9814453l1.0439453,2.4023438c-5.4101562,2.3500977-11.0585938,3.5214844-16.7070312,3.5214844Z"/>
</svg>