<svg xmlns="http://www.w3.org/2000/svg" viewBox="0 0 61.9 99.9">
  <defs>
    <style>
      .st0 {
        fill: #fafafa;
        stroke-miterlimit: 10;
        stroke-width: .9px;
      }

      .st0, .st1 {
        stroke: #000;
      }

      .st1 {
        fill: none;
        stroke-linejoin: bevel;
      }
    </style>
  </defs>
  <line class="st1" x1="30.9" y1="35.4" x2="30.9" y2="4.3"/>
  <line class="st1" x1="30.9" y1="92.9" x2="30.9" y2="61.5"/>
  <path d="M30.9.9s1.1,3.4,1.8,5.1,1.8,4.2,1.8,4.2c0,0-3.5-1.5-3.5-1.5l-3.5,1.5s1.1-2.4,1.7-4,1.8-5.2,1.8-5.2Z"/>
  <circle class="st0" cx="30.9" cy="95.7" r="3.3"/>
  <g>
    <path d="M9.7,41.5l-3,7.8-3.2-7.8H1v.6l1.3.2v7.9l-1.3.2v.6h3.1v-.6l-1.1-.2v-7.1c0,0,3.2,7.9,3.2,7.9h.7l3.1-7.9v3.5c0,1.2,0,2.4,0,3.6h-1.2v.7h3.8v-.6h-1.3c0-1.4,0-2.6,0-3.8v-.7c0-1.2,0-2.4,0-3.6l1.3-.2v-.6h-2.7Z"/>
    <path d="M19.5,46.8c0-1.7-1.1-2.7-2.6-2.7s-3.2,1.4-3.2,3.6,1.2,3.4,3.1,3.4,2.2-.6,2.7-1.6l-.3-.3c-.5.6-1.1,1-2,1-1.4,0-2.3-.9-2.3-2.7h4.5c0-.2,0-.5,0-.8ZM17.6,47h-2.6c.2-1.6,1.1-2.2,1.9-2.2s1.6.7,1.6,1.5-.2.7-.8.7Z"/>
    <path d="M25,44.1c-.8,0-1.6.7-2,1.8l-.2-1.7h-.2c0-.1-1.9.7-1.9.7v.5h1.1c0,.7,0,1.1,0,1.9v.7c0,.6,0,1.6,0,2.3l-1,.2v.5h3.4v-.5l-1.2-.2c0-.7,0-1.6,0-2.2v-1c.3-.8.6-1.4,1.2-1.8h.2c.3.4.5.5.8.5.6,0,.8-.4.8-1-.2-.3-.6-.5-1-.5Z"/>
    <path d="M31.2,44.6c-.4-.4-1-.5-1.7-.5-1.4,0-2.5.8-2.5,2.3s.4,1.6,1.1,2c-.7.7-.9,1.1-.9,1.5s.3.9.9,1.1c-1.1.5-1.4,1-1.4,1.6,0,1,.9,1.7,2.9,1.7s3.4-1.2,3.4-2.4-.7-1.8-2.2-1.8h-1.8c-.7,0-.8-.3-.8-.6s.1-.6.4-.9c.3,0,.7.1,1,.1,1.4,0,2.5-.8,2.5-2.3s-.1-.9-.3-1.3h1.4v-.9h-.2c0-.1-1.6.4-1.6.4ZM30.5,51.1c1,0,1.4.5,1.4,1.1s-.8,1.4-2.4,1.4-1.8-.4-1.8-1.3.2-.8.6-1.3c.2,0,.4,0,.5,0h1.7ZM29.4,48.1c-.9,0-1.4-.7-1.4-1.7s.5-1.8,1.4-1.8,1.4.7,1.4,1.7-.5,1.8-1.5,1.8Z"/>
    <path d="M39.7,46.8c0-1.7-1.1-2.7-2.6-2.7s-3.2,1.4-3.2,3.6,1.2,3.4,3.1,3.4,2.2-.6,2.7-1.6l-.3-.3c-.5.6-1.1,1-2,1-1.4,0-2.3-.9-2.3-2.7h4.5c0-.2,0-.5,0-.8ZM37.8,47h-2.6c.2-1.6,1.1-2.2,1.9-2.2s1.6.7,1.6,1.5-.2.7-.8.7Z"/>
    <path d="M48.8,41.5h-.8l-3,8.7-1.2.2v.6h3.2v-.6l-1.4-.2.8-2.3h3.3l.8,2.3-1.4.2v.6h3.8v-.6h-1.1c0-.1-3-8.9-3-8.9ZM46.6,47.2l1.4-4.2,1.4,4.2h-2.8Z"/>
    <path d="M55.6,48v-7.3c0,0-.1-.1-.1-.1l-2.1.6v.5h1.2v6.3c0,.8,0,1.5,0,2.3l-1.1.2v.5h3.4v-.5l-1.1-.2c0-.8,0-1.5,0-2.3Z"/>
    <path d="M59.8,50.2c0-.8,0-1.5,0-2.3v-7.3c0,0-.1-.1-.1-.1l-2.1.6v.5h1.2v6.3c0,.8,0,1.5,0,2.3l-1.1.2v.5h3.4v-.5l-1.1-.2Z"/>
  </g>
</svg>
