<svg xmlns="http://www.w3.org/2000/svg" viewBox="0 0 70 26">
  <defs>
    <style>
      .st0 {
        fill: #555;
        isolation: isolate;
        opacity: .1;
      }

      .st1 {
        fill: none;
        stroke: #000;
        stroke-miterlimit: 10;
      }

      .st2 {
        fill: #333;
      }
    </style>
  </defs>
  <path class="st0" d="M57.5.5H12.5C5.596.5,0,6.096,0,13s5.596,12.5,12.5,12.5h45c6.904,0,12.5-5.596,12.5-12.5S64.404.5,57.5.5Z"/>
  <g>
    <line class="st1" x1="16.759" y1="7.228" x2="16.759" y2="15.346"/>
    <g>
      <polyline class="st1" points="19.011 12.122 22.404 12.122 22.404 18.966 11.114 18.966 11.114 12.122 14.284 12.122"/>
      <polyline class="st1" points="13.979 9.408 16.759 6.628 19.539 9.408"/>
    </g>
  </g>
  <g>
    <path class="st2" d="M39.119,7.238h-1.031l-3.519,10.238-1.383.207v.673h3.78v-.673l-1.609-.221.915-2.692h3.829l.911,2.721-1.622.194v.671h4.489v-.671l-1.252-.151s-3.508-10.296-3.508-10.296ZM36.533,14l1.667-4.907,1.642,4.907s-3.309,0-3.309,0Z"/>
    <path class="st2" d="M52.428,17.303c-.183.218-.361.362-.636.362-.371,0-.597-.258-.597-.977v-3.508c0-2.086-.825-2.868-2.548-2.868-1.691,0-2.918.784-3.219,2.045.039.42.311.669.764.669.456,0,.72-.274.862-.788l.313-1.067c.348-.083.65-.111.899-.111,1.087,0,1.539.398,1.539,2.006v.41c-.659.157-1.355.364-1.86.543-2.229.804-2.733,1.551-2.733,2.489,0,1.368.999,2.064,2.208,2.064.968,0,1.53-.436,2.425-1.323.143.787.691,1.275,1.483,1.275.586,0,1.039-.222,1.436-.864l-.336-.358h0ZM46.674,16.266c0-.495.184-1.118,1.626-1.68.348-.141.932-.334,1.507-.49v2.517c-.942.671-1.27.872-1.816.872-.747,0-1.316-.348-1.316-1.22h0Z"/>
  </g>
</svg>
