<svg xmlns="http://www.w3.org/2000/svg" viewBox="0 0 70 26">
  <defs>
    <style>
      .st0 {
        isolation: isolate;
        opacity: .1;
      }

      .st1 {
        fill: none;
        stroke: #000;
        stroke-miterlimit: 10;
      }

      .st2 {
        fill: #333;
      }
    </style>
  </defs>
  <rect class="st0" y=".5" width="70" height="25" rx="12.5" ry="12.5"/>
  <g>
    <path class="st2" d="M39.55,11.737c.077-.18.167-.349.237-.535l-1.051-.434c-.09.274-.206.519-.31.777-.14-.011-.271-.032-.417-.034-.794-.009-1.547.109-2.273.312.039-.538.081-1.066.131-1.573.007-.068.014-.127.021-.193.177-.004.355-.009.546-.017.49-.019.984-.044,1.484-.076.499-.033.964-.072,1.393-.119.43-.047.784-.094,1.064-.141l-.042-1.147c-.616.103-1.389.193-2.317.272-.646.056-1.315.084-1.995.101.01-.072.019-.151.029-.22.065-.457.121-.812.168-1.063.047-.205.098-.373.154-.504l-1.345-.183c-.009.047-.016.124-.021.231s-.012.217-.021.329c-.037.308-.081.705-.133,1.189-.007.071-.014.15-.021.224-.361-.008-.721-.018-1.085-.055-.462-.047-.871-.094-1.226-.141l.015,1.232c.316.027.714.051,1.189.069.352.014.682.017,1.013.021-.006.086-.013.165-.018.253-.037.583-.072,1.176-.104,1.778-.003.047-.002.088-.004.135-.49.216-.958.458-1.376.754-.644.457-1.154.973-1.532,1.547s-.567,1.179-.567,1.813c0,.569.156,1.008.469,1.315.312.309.722.462,1.226.462s1.078-.175,1.722-.524c.119-.065.24-.158.359-.231.049.258.098.515.159.771l1.12-.294c-.106-.409-.191-.812-.263-1.209.195-.16.389-.308.586-.492.663-.621,1.281-1.349,1.855-2.185.27-.394.514-.809.74-1.239.357.108.687.262.982.469.63.443.945,1.057.945,1.841,0,.85-.355,1.545-1.064,2.086s-1.764.878-3.164,1.008c.149.149.299.324.448.525.149.2.257.371.322.511.652-.084,1.262-.229,1.826-.434.565-.206,1.069-.474,1.513-.806.443-.331.788-.729,1.036-1.196.247-.467.37-1.004.37-1.61,0-1.018-.396-1.866-1.189-2.548-.446-.383-.979-.65-1.581-.823ZM34.242,16.543c-.504.276-.906.413-1.204.413-.495,0-.742-.247-.742-.741,0-.477.158-.934.476-1.372s.742-.831,1.274-1.177c.168-.109.351-.198.53-.292-.002.141-.013.296-.013.433,0,.719.042,1.441.126,2.17.01.085.026.168.037.252-.162.109-.328.229-.484.314ZM37.476,13.4c-.514.766-1.055,1.412-1.624,1.939-.033.03-.063.051-.095.08-.064-.625-.1-1.181-.1-1.642,0-.281.021-.589.031-.884.042-.014.079-.034.122-.047.645-.201,1.298-.306,1.96-.315.067,0,.128.009.194.01-.156.294-.309.591-.488.858Z"/>
    <path class="st2" d="M52.498,9.2c.064-.13.153-.301.266-.511s.215-.399.309-.567c-.682-.298-1.396-.585-2.143-.86s-1.419-.497-2.016-.665c-.131.242-.255.476-.371.7-.117.224-.189.354-.217.392.662.178,1.359.395,2.093.651.732.257,1.426.543,2.079.86Z"/>
    <path class="st2" d="M53.793,14.408c-.202-.247-.383-.507-.563-.767.517-.361,1.028-.742,1.529-1.157.602-.499,1.099-.94,1.491-1.323.056-.056.121-.106.195-.153-.037-.037-.17-.152-.398-.344-.229-.19-.469-.39-.721-.595-.299.438-.761.947-1.387,1.526-.45.416-.884.764-1.31,1.079-.458-.819-.828-1.693-1.098-2.632v-.113c0-.057.002-.124.007-.203.004-.079.007-.147.007-.203h-4.116c-.205,0-.406-.005-.602-.014v1.147c.195-.009.396-.014.602-.014h2.772v6.944c0,.158-.082.282-.245.37-.164.089-.469.134-.917.134-.374,0-.707-.017-1.001-.05-.294-.032-.465-.053-.512-.062.112.205.236.438.371.7.136.261.25.48.344.658,1.25,0,2.113-.119,2.59-.357.476-.238.714-.6.714-1.085,0-.094-.003-.24-.007-.441-.005-.2-.007-.352-.007-.455,0-.214-.005-.578-.015-1.092-.009-.513-.021-1.068-.035-1.666-.014-.597-.027-1.129-.042-1.596-.001-.044-.003-.08-.004-.121.393.917.86,1.774,1.411,2.564,1.045,1.497,2.296,2.615,3.752,3.353.065-.149.175-.341.329-.574s.301-.443.441-.63c-1.316-.578-2.509-1.521-3.577-2.828Z"/>
    <path class="st2" d="M49.469,12.865c.05-.022.116-.045.159-.066-.168-.159-.339-.306-.511-.441-.173-.135-.315-.24-.428-.315-.037.037-.081.086-.121.126h-3.183c-.196,0-.392-.004-.588-.014v1.148c.205-.01.401-.015.588-.015h2.667c-.354.773-.846,1.507-1.491,2.198-.784.84-1.605,1.47-2.464,1.89.141.169.285.357.435.567.148.21.256.381.321.511,1.018-.541,1.937-1.315,2.758-2.323.803-.986,1.42-2.075,1.858-3.266Z"/>
  </g>
  <g>
    <line class="st1" x1="16.759" y1="7.228" x2="16.759" y2="15.346"/>
    <g>
      <polyline class="st1" points="19.011 12.122 22.404 12.122 22.404 18.966 11.114 18.966 11.114 12.122 14.284 12.122"/>
      <polyline class="st1" points="13.979 9.408 16.759 6.628 19.539 9.408"/>
    </g>
  </g>
</svg>
