<?xml version="1.0" encoding="UTF-8"?>
<svg id="_レイヤー_1" xmlns="http://www.w3.org/2000/svg" version="1.1" viewBox="0 0 182 41.9999847">
  <!-- Generator: Adobe Illustrator 29.8.5, SVG Export Plug-In . SVG Version: 2.1.1 Build 2)  -->
  <defs>
    <style>
      .st0 {
        isolation: isolate;
      }

      .st1 {
        fill: #fff;
      }
    </style>
  </defs>
  <rect y="-.0000146" width="182" height="41.9999847" rx="5" ry="5"/>
  <path class="st1" d="M28.0623627,28.0863749c-.939476.9107189-1.9652328.7669201-2.9526424.3355274-1.0449276-.440979-2.0035782-.4601517-3.1060257,0-1.3804569.5943642-2.1090298.4218063-2.9334698-.3355274-4.6782112-4.82201-3.9879837-12.1652689,1.322937-12.433691,1.294178.0671053,2.1953087.7094021,2.9526424.7669201,1.1312065-.2300758,2.2144814-.8915443,3.4223804-.8052664,1.4475613.1150379,2.5404224.6902285,3.2594109,1.7255697-2.9909878,1.792675-2.2815857,5.7327271.4601517,6.8351765-.5464306,1.4379749-1.2558308,2.8663635-2.4349709,3.9208794l.0095863-.0095882ZM23.22118,15.595164c-.1437969-2.1377897,1.5913582-3.9017057,3.58535-4.0742626.2780094,2.4733171-2.2432404,4.3139248-3.58535,4.0742626Z"/>
  <g class="st0">
    <path class="st1" d="M41.348423,16.3521258h3.5615234c2.9257812,0,4.6416016,1.8046875,4.6416016,4.9013672v.0136719c0,3.1308594-1.7021484,4.9492188-4.6416016,4.9492188h-3.5615234v-9.8642578ZM44.739048,24.8970477c2.0644531,0,3.2539062-1.3193359,3.2539062-3.609375v-.0136719c0-2.2695312-1.2099609-3.6025391-3.2539062-3.6025391h-1.859375v7.2255859h1.859375Z"/>
    <path class="st1" d="M51.082798,22.5113055v-.0136719c0-2.3857422,1.3398438-3.8486328,3.5136719-3.8486328,2.1669922,0,3.5068359,1.4560547,3.5068359,3.8486328v.0136719c0,2.3925781-1.3330078,3.8486328-3.5068359,3.8486328-2.1806641,0-3.5136719-1.4560547-3.5136719-3.8486328ZM56.5925636,22.5113055v-.0136719c0-1.6474609-.7246094-2.6113281-1.9960938-2.6113281-1.2783203,0-1.9960938.9638672-1.9960938,2.6113281v.0136719c0,1.6474609.7177734,2.6113281,1.9960938,2.6113281,1.2714844,0,1.9960938-.9707031,1.9960938-2.6113281Z"/>
    <path class="st1" d="M58.957798,18.7925555h1.4902344l1.3330078,5.7285156h.109375l1.53125-5.7285156h1.4081993l1.53125,5.7285156h.1162109l1.3261719-5.7285156h1.4697266l-2.0439453,7.4238281h-1.5244141l-1.5380859-5.5371094h-.1162109l-1.53125,5.5371094h-1.5107422s-2.0507812-7.4238281-2.0507774-7.4238281Z"/>
    <path class="st1" d="M70.7908096,18.7925555h1.4833984v1.1279297h.109375c.3623047-.7929688,1.0732422-1.2714844,2.1533203-1.2714844,1.6611328,0,2.5771484.9912109,2.5771484,2.7617188v4.8056641h-1.4765625v-4.4570312c0-1.2304688-.5126953-1.8388672-1.5996094-1.8388672s-1.7636719.7451172-1.7636719,1.9414062v4.3544922h-1.4833984v-7.4238281Z"/>
    <path class="st1" d="M79.2468643,15.8804461h1.4833984v10.3359375h-1.4833984v-10.3359375Z"/>
    <path class="st1" d="M82.562294,22.5113055v-.0136719c0-2.3857422,1.3398438-3.8486328,3.5136719-3.8486328,2.1669922,0,3.5068359,1.4560547,3.5068359,3.8486328v.0136719c0,2.3925781-1.3330078,3.8486328-3.5068359,3.8486328-2.1806641,0-3.5136719-1.4560547-3.5136719-3.8486328ZM88.0720596,22.5113055v-.0136719c0-1.6474609-.7246094-2.6113281-1.9960938-2.6113281-1.2783203,0-1.9960938.9638672-1.9960938,2.6113281v.0136719c0,1.6474609.7177734,2.6113281,1.9960938,2.6113281,1.2714844,0,1.9960938-.9707031,1.9960938-2.6113281Z"/>
    <path class="st1" d="M90.9226456,24.1314227v-.0136719c0-1.3261719.9980469-2.0986328,2.7685547-2.2080078l2.0097656-.1162109v-.65625c0-.8134766-.5126953-1.2646484-1.5175781-1.2646484-.8203125,0-1.3603516.3007812-1.5380859.8271484l-.0068359.0273438h-1.4287109l.0068359-.0478516c.1777344-1.2167969,1.3466797-2.0302734,3.0351562-2.0302734,1.8662109,0,2.9189453.9296875,2.9189453,2.4882812v5.0791016h-1.4697266v-1.0527344h-.1162109c-.4375.7519531-1.2167969,1.1757812-2.2011719,1.1757812-1.4150391,0-2.4609375-.8613281-2.4609375-2.2080078ZM93.7800674,25.1568133c1.1074219,0,1.9208984-.7246094,1.9208984-1.6816406v-.6357422l-1.8115234.1162109c-1.0253906.0615234-1.4902344.4306641-1.4902344,1.1005859v.0136719c0,.6835938.5810547,1.0869141,1.3808594,1.0869141Z"/>
    <path class="st1" d="M98.8933487,22.5113055v-.0136719c0-2.3515625,1.1894531-3.8349609,3.0761719-3.8349609,1.0185547,0,1.8867188.5058594,2.2832031,1.3056641h.1162109v-4.0878906h1.4765625v10.3359375h-1.4765625v-1.1689453h-.1162109c-.4306641.8134766-1.2441406,1.2919922-2.2832031,1.2919922-1.8662109,0-3.0761719-1.4970703-3.0761719-3.828125ZM104.3894424,22.5113055v-.0136719c0-1.5859375-.765625-2.5634766-1.9960938-2.5634766-1.2441406,0-1.9892578.9707031-1.9892578,2.5634766v.0136719c0,1.5927734.7451172,2.5634766,1.9892578,2.5634766,1.2373047,0,1.9960938-.9775391,1.9960938-2.5634766Z"/>
    <path class="st1" d="M112.3943253,19.9615008h-1.2236328v-1.1689453h1.2236328v-.7792969c0-1.4765625.7519531-2.2011719,2.296875-2.2011719.3349609,0,.6220703.0273438.875.0683594v1.0869141c-.1367188-.0205078-.3349609-.0341797-.5673828-.0341797-.8203125,0-1.1416016.3964844-1.1416016,1.1484375v.7109375h1.6474609v1.1689453h-1.6337891v6.2548828h-1.4765625v-6.2548828Z"/>
    <path class="st1" d="M116.5095596,22.5113055v-.0136719c0-2.3857422,1.3398438-3.8486328,3.5136719-3.8486328,2.1669922,0,3.5068359,1.4560547,3.5068359,3.8486328v.0136719c0,2.3925781-1.3330078,3.8486328-3.5068359,3.8486328-2.1806641,0-3.5136719-1.4560547-3.5136719-3.8486328ZM122.0193253,22.5113055v-.0136719c0-1.6474609-.7246094-2.6113281-1.9960938-2.6113281-1.2783203,0-1.9960938.9638672-1.9960938,2.6113281v.0136719c0,1.6474609.7177734,2.6113281,1.9960938,2.6113281,1.2714844,0,1.9960938-.9707031,1.9960938-2.6113281Z"/>
    <path class="st1" d="M125.2937393,18.7925555h1.4833984v1.1210938h.109375c.2666016-.7861328.9570312-1.2509766,1.9482346-1.2509766.2392578,0,.4990234.0341797.6494141.0683594v1.3671875c-.2666016-.0546875-.5195312-.0888672-.7998047-.0888672-1.1347656,0-1.9072266.6972656-1.9072266,1.7705078v4.4365234h-1.4833984s0-7.4238281.0000076-7.4238281Z"/>
    <path class="st1" d="M134.8913879,16.3521258h1.7636719l3.1445312,7.8681641h.109375l3.1445312-7.8681641h1.7636719v9.8642578h-1.3945312v-7.2392578h-.1025391l-2.8984375,7.2392578h-1.1347656l-2.8916016-7.2392578h-.109375v7.2392578h-1.3945312v-9.8642578Z"/>
    <path class="st1" d="M146.697052,24.1314227v-.0136719c0-1.3261719.9980469-2.0986328,2.7685547-2.2080078l2.0097656-.1162109v-.65625c0-.8134766-.5126953-1.2646484-1.5175781-1.2646484-.8203125,0-1.3603516.3007812-1.5380859.8271484l-.0068359.0273438h-1.4287109l.0068359-.0478516c.1777344-1.2167969,1.3466797-2.0302734,3.0351562-2.0302734,1.8662109,0,2.9189453.9296875,2.9189453,2.4882812v5.0791016h-1.4697266v-1.0527344h-.1162109c-.4375.7519531-1.2167969,1.1757812-2.2011719,1.1757812-1.4150391,0-2.4609375-.8613281-2.4609375-2.2080078ZM149.5544739,25.1568133c1.1074219,0,1.9208984-.7246094,1.9208984-1.6816406v-.6357422l-1.8115234.1162109c-1.0253906.0615234-1.4902344.4306641-1.4902344,1.1005859v.0136719c0,.6835938.5810547,1.0869141,1.3808594,1.0869141Z"/>
    <path class="st1" d="M154.6677551,22.4839617v-.0136719c0-2.3515625,1.3193359-3.8212891,3.4863281-3.8212891,1.8662109,0,2.9804688,1.0527344,3.1855469,2.4951172v.0341797l-1.421875.0068359-.0068359-.0205078c-.1640625-.7314453-.765625-1.2783203-1.75-1.2783203-1.2373047,0-1.9824219.984375-1.9824219,2.5839844v.0136719c0,1.640625.7587891,2.6386719,1.9824219,2.6386719.9296875,0,1.5039062-.4238281,1.7431641-1.2236328l.0136719-.0341797h1.421875l-.0136719.0615234c-.2666016,1.4423828-1.3261719,2.4335938-3.1650391,2.4335938-2.1669922,0-3.4931641-1.4765625-3.4931641-3.8759766Z"/>
  </g>
</svg>