<?xml version="1.0" encoding="UTF-8"?>
<svg id="_レイヤー_1" data-name="レイヤー_1" xmlns="http://www.w3.org/2000/svg" version="1.1" viewBox="0 0 182 42">
  <!-- Generator: Adobe Illustrator 29.8.5, SVG Export Plug-In . SVG Version: 2.1.1 Build 2)  -->
  <defs>
    <style>
      .st0 {
        isolation: isolate;
      }

      .st1 {
        fill: #fff;
      }
    </style>
  </defs>
  <rect class="st1" width="182" height="41.9999854" rx="4" ry="4"/>
  <path d="M28.0623618,28.0863886c-.9394765.9107182-1.9652326.7669193-2.9526419.3355279-1.0449286-.4409781-2.0035786-.4601516-3.1060257,0-1.3804565.5943638-2.1090298.4218065-2.9334689-.3355279-4.6782116-4.8220101-3.9879835-12.1652688,1.3229375-12.433691,1.2941778.0671057,2.1953084.7094012,2.9526419.7669197,1.1312073-.2300758,2.2144819-.8915443,3.4223801-.8052661,1.4475608.1150379,2.540423.6902282,3.2594105,1.7255701-2.9909878,1.7926754-2.2815861,5.7327264.4601516,6.8351754-.5464302,1.437975-1.255831,2.8663632-2.43497,3.9208786l.0095849-.0095867ZM23.2211801,15.5951787c-.1437971-2.1377895,1.5913588-3.9017056,3.5853507-4.0742624.2780094,2.4733169-2.2432411,4.3139249-3.5853507,4.0742624Z"/>
  <g class="st0">
    <path d="M41.3484234,16.3521409h3.5615234c2.9257812,0,4.6416016,1.8046875,4.6416016,4.9013672v.0136719c0,3.1308594-1.7021484,4.9492188-4.6416016,4.9492188h-3.5615234v-9.8642578ZM44.7390484,24.8970628c2.0644531,0,3.2539062-1.3193359,3.2539062-3.609375v-.0136719c0-2.2695312-1.2099609-3.6025391-3.2539062-3.6025391h-1.859375v7.2255859h1.859375Z"/>
    <path d="M51.0827984,22.5113206v-.0136719c0-2.3857422,1.3398438-3.8486328,3.5136719-3.8486328,2.1669922,0,3.5068359,1.4560547,3.5068359,3.8486328v.0136719c0,2.3925781-1.3330078,3.8486328-3.5068359,3.8486328-2.1806641,0-3.5136719-1.4560547-3.5136719-3.8486328ZM56.592564,22.5113206v-.0136719c0-1.6474609-.7246094-2.6113281-1.9960938-2.6113281-1.2783203,0-1.9960938.9638672-1.9960938,2.6113281v.0136719c0,1.6474609.7177734,2.6113281,1.9960938,2.6113281,1.2714844,0,1.9960938-.9707031,1.9960938-2.6113281Z"/>
    <path d="M58.9577984,18.7925706h1.4902344l1.3330078,5.7285156h.109375l1.53125-5.7285156h1.4082031l1.53125,5.7285156h.1162109l1.3261719-5.7285156h1.4697266l-2.0439453,7.4238281h-1.5244141l-1.5380859-5.5371094h-.1162109l-1.53125,5.5371094h-1.5107422l-2.0507812-7.4238281Z"/>
    <path d="M70.7908062,18.7925706h1.4833984v1.1279297h.109375c.3623047-.7929688,1.0732422-1.2714844,2.1533203-1.2714844,1.6611328,0,2.5771484.9912109,2.5771484,2.7617188v4.8056641h-1.4765625v-4.4570313c0-1.2304688-.5126953-1.8388672-1.5996094-1.8388672s-1.7636719.7451172-1.7636719,1.9414062v4.3544922h-1.4833984v-7.4238281Z"/>
    <path d="M79.2468609,15.8804612h1.4833984v10.3359375h-1.4833984v-10.3359375Z"/>
    <path d="M82.5622906,22.5113206v-.0136719c0-2.3857422,1.3398438-3.8486328,3.5136719-3.8486328,2.1669922,0,3.5068359,1.4560547,3.5068359,3.8486328v.0136719c0,2.3925781-1.3330078,3.8486328-3.5068359,3.8486328-2.1806641,0-3.5136719-1.4560547-3.5136719-3.8486328ZM88.0720562,22.5113206v-.0136719c0-1.6474609-.7246094-2.6113281-1.9960938-2.6113281-1.2783203,0-1.9960938.9638672-1.9960938,2.6113281v.0136719c0,1.6474609.7177734,2.6113281,1.9960938,2.6113281,1.2714844,0,1.9960938-.9707031,1.9960938-2.6113281Z"/>
    <path d="M90.9226421,24.1314378v-.0136719c0-1.3261719.9980469-2.0986328,2.7685547-2.2080078l2.0097656-.1162109v-.65625c0-.8134766-.5126953-1.2646484-1.5175781-1.2646484-.8203125,0-1.3603516.3007812-1.5380859.8271484l-.0068359.0273438h-1.4287109l.0068359-.0478516c.1777344-1.2167969,1.3466797-2.0302734,3.0351562-2.0302734,1.8662109,0,2.9189453.9296875,2.9189453,2.4882812v5.0791016h-1.4697266v-1.0527344h-.1162109c-.4375.7519531-1.2167969,1.1757812-2.2011719,1.1757812-1.4150391,0-2.4609375-.8613281-2.4609375-2.2080078ZM93.780064,25.1568284c1.1074219,0,1.9208984-.7246094,1.9208984-1.6816406v-.6357422l-1.8115234.1162109c-1.0253906.0615234-1.4902344.4306641-1.4902344,1.1005859v.0136719c0,.6835938.5810547,1.0869141,1.3808594,1.0869141Z"/>
    <path d="M98.8933453,22.5113206v-.0136719c0-2.3515625,1.1894531-3.8349609,3.0761719-3.8349609,1.0185547,0,1.8867188.5058594,2.2832031,1.3056641h.1162109v-4.0878906h1.4765625v10.3359375h-1.4765625v-1.1689453h-.1162109c-.4306641.8134766-1.2441406,1.2919922-2.2832031,1.2919922-1.8662109,0-3.0761719-1.4970703-3.0761719-3.828125ZM104.389439,22.5113206v-.0136719c0-1.5859375-.765625-2.5634766-1.9960938-2.5634766-1.2441406,0-1.9892578.9707031-1.9892578,2.5634766v.0136719c0,1.5927734.7451172,2.5634766,1.9892578,2.5634766,1.2373047,0,1.9960938-.9775391,1.9960938-2.5634766Z"/>
    <path d="M112.3943218,19.9615159h-1.2236328v-1.1689453h1.2236328v-.7792969c0-1.4765625.7519531-2.2011719,2.296875-2.2011719.3349609,0,.6220703.0273438.875.0683594v1.0869141c-.1367188-.0205078-.3349609-.0341797-.5673828-.0341797-.8203125,0-1.1416016.3964844-1.1416016,1.1484375v.7109375h1.6474609v1.1689453h-1.6337891v6.2548828h-1.4765625v-6.2548828Z"/>
    <path d="M116.5095562,22.5113206v-.0136719c0-2.3857422,1.3398438-3.8486328,3.5136719-3.8486328,2.1669922,0,3.5068359,1.4560547,3.5068359,3.8486328v.0136719c0,2.3925781-1.3330078,3.8486328-3.5068359,3.8486328-2.1806641,0-3.5136719-1.4560547-3.5136719-3.8486328ZM122.0193218,22.5113206v-.0136719c0-1.6474609-.7246094-2.6113281-1.9960938-2.6113281-1.2783203,0-1.9960938.9638672-1.9960938,2.6113281v.0136719c0,1.6474609.7177734,2.6113281,1.9960938,2.6113281,1.2714844,0,1.9960938-.9707031,1.9960938-2.6113281Z"/>
    <path d="M125.2937359,18.7925706h1.4833984v1.1210938h.109375c.2666016-.7861328.9570312-1.2509766,1.9482422-1.2509766.2392578,0,.4990234.0341797.6494141.0683594v1.3671875c-.2666016-.0546875-.5195312-.0888672-.7998047-.0888672-1.1347656,0-1.9072266.6972656-1.9072266,1.7705078v4.4365234h-1.4833984v-7.4238281Z"/>
    <path d="M134.8913921,16.3521409h1.7636719l3.1445312,7.8681641h.109375l3.1445312-7.8681641h1.7636719v9.8642578h-1.3945312v-7.2392578h-.1025391l-2.8984375,7.2392578h-1.1347656l-2.8916016-7.2392578h-.109375v7.2392578h-1.3945312v-9.8642578Z"/>
    <path d="M146.6970562,24.1314378v-.0136719c0-1.3261719.9980469-2.0986328,2.7685547-2.2080078l2.0097656-.1162109v-.65625c0-.8134766-.5126953-1.2646484-1.5175781-1.2646484-.8203125,0-1.3603516.3007812-1.5380859.8271484l-.0068359.0273438h-1.4287109l.0068359-.0478516c.1777344-1.2167969,1.3466797-2.0302734,3.0351562-2.0302734,1.8662109,0,2.9189453.9296875,2.9189453,2.4882812v5.0791016h-1.4697266v-1.0527344h-.1162109c-.4375.7519531-1.2167969,1.1757812-2.2011719,1.1757812-1.4150391,0-2.4609375-.8613281-2.4609375-2.2080078ZM149.5544781,25.1568284c1.1074219,0,1.9208984-.7246094,1.9208984-1.6816406v-.6357422l-1.8115234.1162109c-1.0253906.0615234-1.4902344.4306641-1.4902344,1.1005859v.0136719c0,.6835938.5810547,1.0869141,1.3808594,1.0869141Z"/>
    <path d="M154.6677593,22.4839768v-.0136719c0-2.3515625,1.3193359-3.8212891,3.4863281-3.8212891,1.8662109,0,2.9804688,1.0527344,3.1855469,2.4951172v.0341797l-1.421875.0068359-.0068359-.0205078c-.1640625-.7314453-.765625-1.2783203-1.75-1.2783203-1.2373047,0-1.9824219.984375-1.9824219,2.5839844v.0136719c0,1.640625.7587891,2.6386719,1.9824219,2.6386719.9296875,0,1.5039062-.4238281,1.7431641-1.2236328l.0136719-.0341797h1.421875l-.0136719.0615234c-.2666016,1.4423828-1.3261719,2.4335938-3.1650391,2.4335938-2.1669922,0-3.4931641-1.4765625-3.4931641-3.8759766Z"/>
  </g>
</svg>